<svg xmlns="http://www.w3.org/2000/svg" version="1.1" xmlns:xlink="http://www.w3.org/1999/xlink" xmlns:svgjs="http://svgjs.dev/svgjs" width="100%" height="100%" viewBox="0 0 1000 600"><rect width="1000" height="600" x="0" y="0" fill="#ffffff"/><g><circle r="166.66666666666666" cx="319.6505228678385" cy="341.8727180781789" fill="#000000" transform="matrix(0.8170797370263845,0,0,0.8170797370263845,0,20.662715522138114)"/><path d="M337.0831096708298 334.82609225064994L339.2889920650199 347.81628857199144L296.2742853783136 347.81628857199144L296.2742853783136 416.87266241233044L279.0561478014411 416.87266241233044L279.0561478014411 266.8726596074059L358.03899241563545 266.8726596074059L360.24487480982555 279.8934931842223L296.2742853783136 279.8934931842223L296.2742853783136 334.82609225064994L337.0831096708298 334.82609225064994Z " fill="#ffffff" transform="matrix(0.8170797370263845,0,0,0.8170797370263845,0,20.662715522138114)"/><path d="M592.8026838428882 413.04113103955785L569.6505118498126 413.04113103955785L569.6505118498126 270.7041863215655L583.7130106836349 270.7041863215655L590.7646405336386 290.67701075221163Q598.672248573527 283.9107069655029 611.1450736261345 277.30744664353426Q623.6178986787422 270.7041863215655 635.0717020767249 270.7041863215655L635.0717020767249 270.7041863215655Q636.2537671960897 275.39168593283955 637.7211583787494 279.9569029455587Q639.1885495614091 284.4813590920928 640.6559407440689 289.20961956955193L640.6559407440689 289.20961956955193Q628.0200722267214 289.20961956955193 615.1396385122638 296.09820595481557Q602.2184439316213 302.9867923400792 592.8026838428882 312.36179156262745L592.8026838428882 312.36179156262745L592.8026838428882 413.04113103955785ZM679.9901766125862 372.52483005167574L679.9901766125862 372.52483005167574Q679.9901766125862 381.6552640771139 686.30811087126 389.84819818029735Q692.5852842637488 398.0818931496657 706.6885439637559 398.0818931496657L706.6885439637559 398.0818931496657Q718.9983255516237 398.0818931496657 729.2700638302416 391.92700235573193Q739.5418021088595 385.7313506956132 746.8787580221582 377.25309052913474L746.8787580221582 377.25309052913474L746.8787580221582 344.6443975811411L709.3380002657806 344.6443975811411Q694.9494145024784 344.6443975811411 687.4494151244397 353.04113601524955Q679.9901766125862 361.3971135831729 679.9901766125862 372.52483005167574ZM667.6396341585336 279.50853341752384L667.6396341585336 279.50853341752384Q675.8733291279019 273.9242947501799 690.8325670177941 270.41886025827057Q705.7918049076862 266.87266490017623 714.5961520036445 266.87266490017623L714.5961520036445 266.87266490017623Q739.2564760455647 266.87266490017623 754.6640834634917 280.24222900885366Q770.0716908814187 293.6117931175311 770.0716908814187 315.01124786465186L770.0716908814187 315.01124786465186L770.0716908814187 413.04113103955785L756.0091920475965 413.04113103955785L749.8135403874777 398.65254527625564Q742.476584474179 405.41884906296434 730.7374550129013 411.00308773030827Q718.9983255516237 416.5465655314672 707.2591960903459 416.5465655314672L707.2591960903459 416.5465655314672Q682.6396329146106 416.5465655314672 670.5744165238531 404.0737404788596Q658.5499609992803 391.60091542625196 658.5499609992803 372.52483005167574L658.5499609992803 372.52483005167574Q658.5499609992803 351.4107013678498 672.7755032978426 340.40526749790195Q687.0418064625898 329.3998336279541 709.9086523923703 329.3998336279541L709.9086523923703 329.3998336279541L746.5934319588633 329.3998336279541Q746.5934319588633 311.7911394360375 741.0091932915194 299.48135784816986Q735.4657154903604 287.13081539411735 715.4928910597142 287.13081539411735L715.4928910597142 287.13081539411735Q701.104305296412 287.13081539411735 691.729306073864 290.3509238227317Q682.3135459851306 293.6117931175311 674.4059379452423 297.11722760944036L674.4059379452423 297.11722760944036Q672.9385467625826 292.7150540614612 671.1858295166279 288.31288051348207Q669.4331122706732 283.9107069655029 667.6396341585336 279.50853341752384ZM872.2184215410088 286.5601632675274L872.2184215410088 286.5601632675274Q850.4928798644079 286.5601632675274 840.22114158579 302.2530967487494Q829.949403307172 317.94603022997137 829.6640772438772 341.13896308923177L829.6640772438772 341.13896308923177Q829.6640772438772 365.1878741383771 839.3244025297203 381.20689454907904Q849.0254886817482 397.1851540935959 871.036356421644 397.1851540935959L871.036356421644 397.1851540935959Q885.4249421849462 397.1851540935959 892.7618980982448 394.2503717282765Q900.0988540115433 391.3155893629571 908.2917881147267 387.1987418782728L908.2917881147267 387.1987418782728L915.3434179647305 404.23678394359956Q906.2537448054771 410.10634867423835 893.3325502248348 413.4895005675927Q880.4113556441922 416.87265246094705 871.3216824849391 416.87265246094705L871.3216824849391 416.87265246094705Q839.0390764664252 416.87265246094705 822.4494039291334 395.71776291093624Q805.9004922580267 374.6036342271103 805.9004922580267 341.42428915252674L805.9004922580267 341.42428915252674Q806.1858183213216 308.8563570707181 823.3461429852033 287.86451098544717Q840.506467649085 266.87266490017623 872.7890736675987 266.87266490017623L872.7890736675987 266.87266490017623Q881.3080947002621 266.87266490017623 894.3515718794596 270.2558167935306Q907.4358099248419 273.63896868688494 916.5254830840951 279.79385948081875L916.5254830840951 279.79385948081875L909.4738532340915 296.54657548285047Q901.2809191309083 292.7150540614612 893.7809197528696 289.6172282314018Q886.280920374831 286.5601632675274 872.2184215410088 286.5601632675274ZM1070.8868833266602 345.5411366372109L1070.8868833266602 345.5411366372109L967.5988484138903 345.5411366372109Q968.4548266037751 368.1226565036966 979.623303938463 382.95961179503365Q990.7917812731508 397.7965670863708 1014.8406923222961 397.7965670863708L1014.8406923222961 397.7965670863708Q1029.2292780855983 397.7965670863708 1038.1559077801116 394.69874125631134Q1047.12329834081 391.60091542625196 1055.356993310178 387.81015487104776L1055.356993310178 387.81015487104776L1062.693949223477 404.8074360701894Q1053.5635151980387 411.00308773030827 1038.8896033714414 413.7748266308877Q1024.215691544844 416.5465655314672 1015.4113444488859 416.5465655314672L1015.4113444488859 416.5465655314672Q979.9086300017578 416.5465655314672 961.7292836832515 395.59548031238126Q943.5091764985599 374.6036342271103 943.5091764985599 341.42428915252674L943.5091764985599 341.42428915252674Q943.8352634280399 309.1416831340131 960.9955880919216 288.02755445018715Q978.1559127558031 266.87266490017623 1009.867866647727 266.87266490017623L1009.867866647727 266.87266490017623Q1043.0064508561254 266.87266490017623 1056.946667091393 290.2286412241767Q1070.8868833266602 313.5438566819922 1070.8868833266602 345.5411366372109ZM968.16950054048 329.68515969124905L1048.0200373968796 329.68515969124905Q1045.65590715815 310.6090743166727 1036.5662339988967 298.58461879210006Q1027.4765608396438 286.5601632675274 1008.9711275916571 286.5601632675274L1008.9711275916571 286.5601632675274Q990.4656943436709 286.5601632675274 980.3569995297927 298.58461879210006Q970.2483047159147 310.6090743166727 968.16950054048 329.68515969124905L968.16950054048 329.68515969124905Z " fill="#000000" transform="matrix(0.8170797370263845,0,0,0.8170797370263845,0,20.662715522138114)"/></g></svg>